<svg xmlns="http://www.w3.org/2000/svg" viewBox="0 0 254.5 34.7">
    <defs>
        <style>
            .cls-1 {
                stroke: #000;
                stroke-miterlimit: 10
            }
        </style>
    </defs>
    <path
        d="M13.7 19.8c0 .2-.1.3-.3.4l-.5.2-.5.2-.4.3.3 2.3a109.3 109.3 0 0 1 .7 7c0 .8 0 1.5-.2 2.2-.2.7-.5 1-1 1-.2 0-.4-.3-.6-.9l-.4-1.9a26.4 26.4 0 0 1-.4-4.8l-.1-1.6-.2-1.5-.1-1.2a31.7 31.7 0 0 0-5.7 1v.5l.1 2.4.3 2.5.2 2.7a37.3 37.3 0 0 1 0 3.3c0 .2-.2.3-.4.3-.4 0-.7-.2-1-.6l-.4-1.3a16.7 16.7 0 0 1-.3-3.1 36 36 0 0 1-.6-6.3l-.4-.1-.6-.3-.5-.4a.6.6 0 0 1-.2-.4c0-.4.2-.7.5-1l1.2-.6V7.4c0-.2 0-.6.2-1 .1-.3.4-.5.6-.5.3 0 .5.1.6.3l.4.6a4.4 4.4 0 0 1 .3 1.5v11.5a20 20 0 0 0 2.6-.2l1.5-.1 1.3-.2L8.6 9.2l-.1-.7v-.7c0-.6 0-1.1.2-1.5.2-.4.5-.6.8-.6.5 0 .7.2.8.6l.2 1.8.1 1.5.2 1.5 1 8.1H13c.4.1.6.3.6.6ZM26.5 23.1a7.1 7.1 0 0 1-1 3.7c-.4.5-.7.9-1.2 1.1-.4.3-.9.4-1.4.4-.9 0-1.6-.2-2.1-.7-.5-.5-.9-1.1-1.2-1.8l-.5-2-.1-1.6c0-.6 0-1.2.2-2l.8-2 1-1.5c.4-.4.8-.6 1.2-.6l.4.1a3 3 0 0 1 1.3.8l.4.7c.3 0 .7.1 1 .3.4.3.6.4.6.6a22.3 22.3 0 0 1 .6 4.6Zm-2.1-.9c0-.4 0-1-.2-1.5 0-.5-.3-1-.6-1.6H23c-.4 0-.7 0-1 .3a2 2 0 0 0-.4.8l-.3 1v2.4l.3 1.2c0 .4.2.7.4 1 .2.2.5.4.8.4s.6-.2.8-.5l.5-1.2.3-1.3v-1ZM45.9 12.4s.2 0 .2.2c0 .3-.2.5-.4.7-.2.3-.3.5-.3.8v3.6l-.1.8v5.4a23.6 23.6 0 0 1-.5 3.3l-.2 1.6-.3.3a3.8 3.8 0 0 1-1 .2H43c-.3 0-.7-.2-1-.6a18.4 18.4 0 0 1-2.5-3.6 30.4 30.4 0 0 1-1 2.7l-.7 1a1 1 0 0 1-.8.3c-.3 0-.7-.2-1.2-.6a16.4 16.4 0 0 1-2.5-3.5 31.7 31.7 0 0 1-1.7-4.1l-.2-1.5c0-.1 0-.3.2-.5l.5-.2c.4 0 .8 0 1 .4l.3.8a23.9 23.9 0 0 0 1.8 4.2l1.5 2 .5-1.4a24.6 24.6 0 0 0 .6-2.8v-1a7 7 0 0 1-.2-1.4V19c0-.8.3-1.2 1-1.2.5 0 .8.2 1 .5l.7 1 .2 1.2.2.9.7 2 1 2 .4-.5.1-.8.1-.7v-10c0-.2 0-.4.2-.5l.6-.4c.2-.2.5-.3.7-.3l.4-.2c.2 0 .3 0 .5.2l.5.3ZM82.5 11.8c-.4.5-1 1-1.7 1.4a35.3 35.3 0 0 1-4.4 2.3l-.8.5.2.9.4 1.7.6 2a67.5 67.5 0 0 1 1 4.7l.2 1.3v.7c0 .5 0 1-.2 1.5-.1.5-.4.7-.7.7-.2 0-.4 0-.6-.2a3 3 0 0 1-.8-1.6V27a17.7 17.7 0 0 0-.6-4.3l-.6-2.2a113 113 0 0 0-1-3.6 31.5 31.5 0 0 0-5 2.7l-2.1 1.3a55 55 0 0 1-2.5 1.4c-.4 0-.8-.1-1-.4-.3-.3-.4-.6-.4-1 0-.2.3-.4.8-.8a77.4 77.4 0 0 1 7-4l2.8-1.3a125 125 0 0 1-1.2-6.6l-.2-1.4c0-.4 0-.7.3-1l.6-.2c.3 0 .5.2.6.7a245 245 0 0 0 1.9 7.9l1.5-.6a112.3 112.3 0 0 0 5.4-2.3c.2 0 .3 0 .3.2l.2.3ZM93.7 23.1a7.1 7.1 0 0 1-1 3.7c-.4.5-.8.9-1.2 1.1-.4.3-.9.4-1.4.4-.9 0-1.6-.2-2.1-.7-.5-.5-1-1.1-1.2-1.8-.3-.7-.4-1.4-.5-2l-.1-1.6c0-.6 0-1.2.2-2l.7-2 1-1.5c.4-.4.8-.6 1.3-.6l.4.1a3 3 0 0 1 1.3.8c.2.2.3.4.3.7.4 0 .7.1 1.1.3l.6.6.5 2.5.1 2Zm-2.2-.9v-1.5l-.7-1.6h-.7c-.4 0-.7 0-1 .3a2 2 0 0 0-.4.8c-.2.3-.2.7-.3 1v2.4l.3 1.2c0 .4.2.7.4 1 .2.2.5.4.8.4s.6-.2.8-.5l.5-1.2.3-1.3v-1ZM132.5 19.8c0 .2 0 .3-.2.4l-.5.2-.6.2-.4.3.4 2.3a109.3 109.3 0 0 1 .7 7c0 .8-.1 1.5-.3 2.2-.2.7-.5 1-1 1-.1 0-.3-.3-.5-.9l-.4-1.9a26.4 26.4 0 0 1-.4-4.8c0-.5 0-1-.2-1.6l-.1-1.5-.2-1.2a31.7 31.7 0 0 0-5.6 1v.5l.1 2.4.2 2.5.2 2.7a37.3 37.3 0 0 1 0 3.3c0 .2-.2.3-.4.3-.4 0-.7-.2-.9-.6l-.4-1.3a16.7 16.7 0 0 1-.4-3.1 36 36 0 0 1-.5-6.3l-.5-.1-.6-.3-.4-.4a.6.6 0 0 1-.2-.4c0-.4.1-.7.5-1l1.1-.6V7.4l.3-1c.1-.3.3-.5.6-.5l.6.3.4.6a4.4 4.4 0 0 1 .2 1.5v11.5a20 20 0 0 0 2.7-.2l1.5-.1 1.2-.2-1-10.1-.2-.7v-.7c0-.6.1-1.1.3-1.5.2-.4.4-.6.8-.6s.7.2.8.6l.2 1.8v1.5l.2 1.5 1.1 8.1h1.2c.4.1.6.3.6.6ZM139.6 11.4l-.3.4a10 10 0 0 1-1.8 1.1l-.7.3h-.5a1.7 1.7 0 0 1-1.2-.6 1 1 0 0 1-.3-.7c0-.5.2-.9.5-1.3s.8-.6 1.3-.6l.6.1a8.6 8.6 0 0 1 2 .8c.3.1.4.3.4.5Zm1.6 18c0 .2-.2.4-.5.5l-.8.3c-.3 0-.6-.2-.8-.7l-.7-1.4a19.5 19.5 0 0 1-.8-2.6 30 30 0 0 0-.3-1.1l-.5-1.3-.4-1.1-.1-.6c0-.4 0-.8.3-1.2.1-.4.4-.6.6-.6.3 0 .6.2 1 .7l.9 1.7a23.4 23.4 0 0 1 1.5 4.5 54.4 54.4 0 0 1 .6 2.8Z"
        class="cls-1" />
    <path
        d="M157 11.8c-.5.5-1 1-1.8 1.4a35.3 35.3 0 0 1-4.4 2.3c-.6.2-.8.4-.8.5l.2.9.4 1.7.6 2a67.5 67.5 0 0 1 1 4.7l.2 1.3v.7c0 .5 0 1-.2 1.5-.1.5-.4.7-.7.7-.2 0-.4 0-.6-.2a3 3 0 0 1-.8-1.6V27a17.7 17.7 0 0 0-.6-4.3l-.6-2.2a113 113 0 0 0-1-3.6 31.5 31.5 0 0 0-5 2.7l-2.1 1.3a55 55 0 0 1-2.5 1.4c-.4 0-.8-.1-1-.4-.3-.3-.4-.6-.4-1 0-.2.3-.4.8-.8a77.4 77.4 0 0 1 7-4l2.8-1.3a125 125 0 0 1-1.2-6.6l-.2-1.4c0-.4 0-.7.3-1l.6-.2c.3 0 .5.2.6.7a245 245 0 0 0 1.9 7.9l1.5-.6a112.3 112.3 0 0 0 5.4-2.3c.2 0 .3 0 .3.2l.2.3ZM173.3 24.7l-.1 1-.3.9-.9 1a17 17 0 0 1-4.6 3.3 5.2 5.2 0 0 1-4.5.4c-.5 0-1-.4-1.5-.8s-.9-1-1.2-1.7c-.3-.6-.5-1.4-.5-2.3 0-1.5.3-3 .8-4.2.5-1.2 1-2.2 1.6-3l.8-1a27.1 27.1 0 0 1 2.1-1.8l.7-.3c.2 0 .5.1.7.3.3.1.4.3.4.4 0 .3 0 .5-.2.7l-.6.6a13.7 13.7 0 0 0-2 2.1 11.8 11.8 0 0 0-2.3 6.1c0 .9.3 1.5 1 2a3 3 0 0 0 1.9.8c1.2 0 2.3-.3 3.2-.8 1-.6 1.8-1.2 2.5-1.9l1.6-1.8c.4-.5.7-.8.9-.8.4 0 .5.3.5.8ZM192.5 24.6l.3.3-.3.6a6.9 6.9 0 0 1-1.6 2l-1 .3a3 3 0 0 1-2.7-1.4 5 5 0 0 1-.6-1.4 27 27 0 0 1-.5-1.7c-.1 0-.3.3-.6 1l-1 2.3-1 2.2c-.2.7-.4 1-.5 1-.6 0-1-.2-1.5-.7a6 6 0 0 1-1-1.7 12.8 12.8 0 0 1-.7-3.7l-.6-4.3a97.6 97.6 0 0 1-1-9 25 25 0 0 1-.6-6.6v-.5l.1-1.2c0-.4.2-.8.3-1.1.2-.3.3-.5.5-.5s.4.2.6.4l.5 1a5.5 5.5 0 0 1 .4 1.7v1.3l-.2 1.1a38.2 38.2 0 0 0 .8 6.3 348.5 348.5 0 0 1 .4 2.5l.2 1.5a116.8 116.8 0 0 1 .5 4.2l.2 1.8.2 1.1v.4l.2.6.2.6.2.5.8-1.8a87.8 87.8 0 0 1 1.9-4.6c.3-.7.6-1 .8-1 .2 0 .4 0 .6.2l.6.2c.3.1.5.3.5.5l.1.7a26 26 0 0 0 .8 3.4l.7 1.5c.2.4.5.6.7.6.2 0 .3-.2.6-.5.2-.3.5-.5.9-.5h.3l.5.4ZM211 24.6l.2.3-.2.6a6.9 6.9 0 0 1-1.7 2c-.3.2-.6.3-1 .3a3 3 0 0 1-2.6-1.4 5 5 0 0 1-.6-1.4 27 27 0 0 1-.6-1.7c-.1 0-.3.3-.6 1l-1 2.3-.9 2.2c-.3.7-.5 1-.6 1-.6 0-1-.2-1.4-.7a6 6 0 0 1-1-1.7 12.8 12.8 0 0 1-.8-3.7c0-.8-.3-2.3-.6-4.3a97.6 97.6 0 0 1-1-9l-.3-1.6a25 25 0 0 1-.4-5l.1-.5.1-1.2.3-1.1.5-.5c.3 0 .5.2.7.4l.5 1a5.5 5.5 0 0 1 .4 1.7l-.1 1.3-.1 1.1.1 1.9a38.2 38.2 0 0 0 .7 4.5 348.5 348.5 0 0 1 .3 2.4l.2 1.5a116.8 116.8 0 0 1 .5 4.2l.3 1.8.1 1.1.1.4.1.6.2.6c0 .2.2.4.3.5l.7-1.8a87.8 87.8 0 0 1 2-4.6c.2-.7.5-1 .7-1 .3 0 .5 0 .6.2l.7.2c.3.1.4.3.4.5l.1.7a26 26 0 0 0 .8 3.4l.7 1.5c.3.4.5.6.8.6l.5-.5c.2-.3.5-.5 1-.5h.3l.4.4ZM216.9 11.4l-.4.4a10 10 0 0 1-1.7 1.1l-.8.3h-.5a1.7 1.7 0 0 1-1.1-.6 1 1 0 0 1-.3-.7c0-.5.2-.9.5-1.3s.7-.6 1.3-.6l.6.1a8.6 8.6 0 0 1 2 .8c.2.1.4.3.4.5Zm1.6 18c0 .2-.2.4-.5.5l-.8.3c-.3 0-.6-.2-.8-.7l-.7-1.4a19.5 19.5 0 0 1-.8-2.6 30 30 0 0 0-.4-1.1l-.4-1.3-.4-1.1-.1-.6c0-.4 0-.8.2-1.2.2-.4.4-.6.7-.6.3 0 .6.2.9.7l1 1.7a23.4 23.4 0 0 1 1.4 4.5 54.4 54.4 0 0 1 .7 2.8ZM238.5 28.3v.6l-.5.3a14.4 14.4 0 0 1-2.5.6 25.3 25.3 0 0 1-3 .4 17.1 17.1 0 0 1-5.4-.9l-1.1-.6a45.2 45.2 0 0 1 .6 4.4c0 .1-.3.2-.7.2a1 1 0 0 1-.4-.1l-.4-.5a19.8 19.8 0 0 1-1.2-3.5l-.5-1.8-.5-2.2a308.1 308.1 0 0 1-3-11.5l-.3-2.1v-.8l.2-1c0-.3.2-.5.3-.7l.6-.3c.2 0 .4.2.5.7l.5 1.6.4 1.7.2.9.4 2.3.6 2.6a44.5 44.5 0 0 0 1.3 4.4l.4-1.4c.1-.6.4-1.2.7-2a39.9 39.9 0 0 1 2.4-4.2l1.3-1.5c.4-.3.8-.5 1.2-.5.6 0 1 0 1.2.2.3.2.4.4.4.6 0 .2-.3.6-.8 1.1a22.2 22.2 0 0 0-3.7 5.4c-.5 1.3-.8 2.6-.8 4.1 0 .6.2 1 .5 1.5.3.4.7.7 1.2 1 .5.2 1 .4 1.7.5l1.8.3a38.8 38.8 0 0 0 5-.3H238.3l.2.5ZM254 28.4v.3l-.4.9a6 6 0 0 1-2 1.5 10.6 10.6 0 0 1-4.7 1 5 5 0 0 1-2.2-.4c-.7-.4-1.3-.8-1.8-1.5-.6-.7-1-1.5-1.4-2.5-.3-1-.5-2-.5-3.4s.1-2.4.5-3.5c.3-1 .7-2 1.2-2.9s1-1.5 1.6-2c.6-.4 1.2-.7 1.8-.7.5 0 1 .1 1.6.4l1.4.7c.4.4.8.7 1 1.1.3.4.4.8.4 1.2 0 .5-.2 1-.6 1.5l-1.6 1.4c-.6.5-1.2.8-1.8 1.1-.6.3-1 .4-1.4.4-.2 0-.4 0-.5-.2a1 1 0 0 1-.3-.7c0-.4.2-.8.6-1l1.4-.8 1.3-.7c.4-.3.6-.7.6-1.2l-.3-.5c-.1-.2-.6-.3-1.3-.3-.3 0-.7.1-1 .5-.5.4-.9.9-1.3 1.5a9.6 9.6 0 0 0-1.3 5 5.4 5.4 0 0 0 3.3 5c.7.3 1.3.4 2 .4l1.5-.3a17.9 17.9 0 0 0 3-1.4l.6-.3c.1 0 .2 0 .3.2l.3.3Z"
        class="cls-1" />
</svg>