<svg xmlns="http://www.w3.org/2000/svg" viewBox="0 0 254.48 34.7">
    <defs>
        <style>
            .cls-1 {
                stroke: #000;
                stroke-miterlimit: 10
            }
        </style>
    </defs>
    <path
        d="M13.65 19.8c0 .16-.07.29-.22.38-.14.1-.3.18-.48.24s-.36.14-.55.22c-.19.08-.34.17-.43.26l.34 2.26c.19 1.25.36 2.46.5 3.65.14 1.18.22 2.3.22 3.36 0 .83-.09 1.58-.26 2.23-.18.66-.49.98-.94.98-.22 0-.42-.28-.6-.84-.18-.56-.32-1.2-.43-1.92-.11-.72-.19-1.44-.24-2.16-.05-.72-.07-1.24-.07-1.56 0-.22-.02-.58-.05-1.08-.03-.5-.08-1.02-.14-1.58-.06-.56-.13-1.09-.19-1.58-.06-.5-.11-.87-.14-1.13-.54.03-1.28.1-2.21.22-.93.11-2.06.34-3.41.7v.58c0 .7.03 1.48.1 2.33.06.85.14 1.71.22 2.59.08.88.15 1.76.22 2.64.06.88.1 1.72.1 2.52 0 .32-.03.58-.1.79-.06.21-.21.31-.43.31-.38 0-.68-.19-.89-.58-.21-.38-.36-.84-.46-1.37-.1-.53-.17-1.08-.22-1.66-.05-.58-.09-1.06-.12-1.44-.13-.83-.23-1.8-.31-2.9-.08-1.1-.15-2.23-.22-3.38-.13 0-.29-.04-.48-.12-.19-.08-.38-.18-.58-.29-.19-.11-.35-.23-.48-.36a.586.586 0 0 1-.19-.43c0-.38.18-.7.53-.94.35-.24.74-.44 1.15-.6-.03-.29-.05-.6-.05-.94v-5.66c0-.88 0-1.85.02-2.9.02-1.06.02-2.13.02-3.22.03-.26.11-.57.24-.94s.34-.55.62-.55c.22 0 .42.09.58.26.16.18.29.39.38.65a4.418 4.418 0 0 1 .29 1.49V19.8c.29 0 .67-.02 1.15-.05.48-.03.98-.07 1.49-.12.51-.05 1.02-.1 1.51-.17.5-.06.9-.13 1.22-.19L8.56 9.19a7.33 7.33 0 0 1-.07-.72c-.02-.26-.02-.46-.02-.62 0-.64.09-1.16.26-1.56.18-.4.44-.6.79-.6.45 0 .72.21.82.62.1.42.16 1.02.19 1.82.03.51.06 1.02.1 1.51.03.5.08.98.14 1.46l1.1 8.11c.38 0 .78.02 1.18.07.4.05.6.22.6.5ZM26.52 23.11c0 .7-.1 1.38-.29 2.02-.19.64-.45 1.2-.77 1.68s-.7.86-1.13 1.13c-.43.27-.9.41-1.42.41-.9 0-1.6-.26-2.11-.77-.51-.51-.9-1.1-1.18-1.78-.27-.67-.45-1.35-.53-2.04-.08-.69-.12-1.21-.12-1.56 0-.58.09-1.22.26-1.94.18-.72.42-1.38.72-1.99.3-.61.65-1.12 1.03-1.54.38-.42.78-.62 1.2-.62.1 0 .25.03.46.1.21.06.42.16.65.29.22.13.42.29.6.48s.3.42.36.67c.35.03.7.16 1.06.38.35.22.54.4.58.53.26.83.42 1.66.5 2.5.08.83.12 1.52.12 2.06Zm-2.16-.86c0-.48-.05-.98-.14-1.51-.1-.53-.29-1.06-.58-1.61-.06.03-.14.05-.24.05-.13 0-.23-.02-.31-.05a.63.63 0 0 0-.22-.05c-.38 0-.69.1-.91.31-.22.21-.39.48-.5.82-.11.34-.18.7-.22 1.08-.03.38-.05.75-.05 1.1s.02.74.05 1.18c.03.43.1.84.22 1.22.11.38.26.71.46.98.19.27.45.41.77.41s.59-.17.82-.5c.22-.34.4-.73.53-1.18.13-.45.22-.89.26-1.32.05-.43.07-.74.07-.94ZM45.86 12.36c.13.03.19.13.19.29 0 .22-.11.46-.34.7-.22.24-.34.5-.34.79 0 .06 0 .3-.02.72s-.02.88-.02 1.39 0 .99-.02 1.44c-.02.45-.02.7-.02.77v4.75l-.05.67c-.03.42-.09.91-.17 1.49-.08.58-.16 1.18-.24 1.8-.08.62-.17 1.16-.26 1.61-.03.13-.12.22-.26.29-.14.06-.3.12-.48.17a3.4 3.4 0 0 1-.5.1c-.16.02-.26.02-.29.02-.35 0-.73-.21-1.13-.62-.4-.42-.78-.88-1.13-1.39a18.4 18.4 0 0 1-.91-1.44c-.26-.45-.4-.7-.43-.77-.13.45-.27.9-.43 1.37-.16.46-.34.89-.53 1.27s-.41.7-.65.96c-.24.26-.5.38-.79.38-.38 0-.78-.19-1.2-.58-.42-.38-.84-.88-1.27-1.49-.43-.61-.84-1.29-1.22-2.04s-.72-1.48-1.01-2.18c-.29-.7-.52-1.36-.7-1.97-.18-.61-.26-1.09-.26-1.44 0-.13.06-.29.19-.48s.3-.29.53-.29c.45 0 .77.14.96.43.03.03.14.32.31.86.18.54.42 1.18.74 1.92s.7 1.5 1.13 2.28c.43.78.92 1.45 1.46 1.99.22-.42.41-.88.55-1.39.14-.51.26-1.01.36-1.49.1-.48.16-.92.19-1.32s.05-.73.05-.98c-.06-.26-.11-.51-.14-.77-.03-.22-.06-.45-.07-.67-.02-.22-.02-.42-.02-.58 0-.8.32-1.2.96-1.2.48 0 .85.15 1.1.46.26.3.45.66.58 1.06.13.4.22.79.26 1.18.05.38.1.66.17.82.26.74.49 1.42.7 2.06.21.64.57 1.3 1.08 1.97.13-.1.23-.26.31-.5.08-.24.14-.49.17-.74.03-.26.05-.49.05-.7V13.32c0-.19.08-.37.24-.53.16-.16.35-.3.58-.43.22-.13.44-.23.65-.31.21-.08.36-.12.46-.12.16 0 .31.05.46.14.14.1.31.19.5.29ZM82.53 11.78c-.42.48-1.01.95-1.78 1.42-.77.46-1.54.89-2.3 1.27-.77.38-1.44.71-2.02.98-.58.27-.86.46-.86.55s.06.38.19.86.28 1.05.46 1.7c.18.66.36 1.34.55 2.04.19.7.35 1.33.48 1.87.06.32.14.74.24 1.25.1.51.18 1.02.26 1.54.08.51.15.97.22 1.37.06.4.1.62.1.65 0 .48-.08.98-.24 1.49-.16.51-.42.77-.77.77-.19 0-.37-.08-.53-.24-.16-.16-.3-.34-.43-.55-.13-.21-.22-.41-.29-.6-.06-.19-.1-.34-.1-.43 0-.06 0-.16.02-.29.02-.13.02-.27.02-.43 0-.61-.1-1.49-.29-2.64-.06-.35-.19-.9-.38-1.63-.19-.74-.38-1.49-.58-2.26-.22-.9-.48-1.87-.77-2.93-.13-.45-.21-.67-.24-.67-.22 0-.6.14-1.13.41-.53.27-1.13.61-1.8 1.01-.67.4-1.38.83-2.11 1.3-.74.46-1.42.9-2.06 1.3-.64.4-1.19.74-1.66 1.01-.46.27-.74.41-.84.41-.42 0-.75-.14-1.01-.43s-.38-.61-.38-.96c0-.19.26-.47.79-.84s1.18-.78 1.97-1.22c.78-.45 1.63-.91 2.54-1.39.91-.48 1.76-.91 2.54-1.3.78-.38 1.7-.83 2.76-1.34-.29-1.47-.53-2.78-.72-3.94-.16-.99-.31-1.9-.46-2.74-.14-.83-.22-1.28-.22-1.34 0-.42.09-.73.26-.94.18-.21.38-.31.6-.31.35 0 .58.24.67.72.35 1.73.68 3.26.98 4.61.3 1.34.6 2.43.89 3.26.29-.06.78-.25 1.49-.55.7-.3 1.44-.63 2.21-.98s1.46-.66 2.09-.94c.62-.27.98-.41 1.08-.41.19 0 .31.06.36.19.05.13.1.24.17.34ZM93.71 23.11c0 .7-.1 1.38-.29 2.02-.19.64-.45 1.2-.77 1.68s-.7.86-1.13 1.13c-.43.27-.9.41-1.42.41-.9 0-1.6-.26-2.11-.77-.51-.51-.9-1.1-1.18-1.78-.27-.67-.45-1.35-.53-2.04-.08-.69-.12-1.21-.12-1.56 0-.58.09-1.22.26-1.94.18-.72.42-1.38.72-1.99.3-.61.65-1.12 1.03-1.54.38-.42.78-.62 1.2-.62.1 0 .25.03.46.1.21.06.42.16.65.29.22.13.42.29.6.48s.3.42.36.67c.35.03.7.16 1.06.38.35.22.54.4.58.53.26.83.42 1.66.5 2.5.08.83.12 1.52.12 2.06Zm-2.16-.86c0-.48-.05-.98-.14-1.51-.1-.53-.29-1.06-.58-1.61-.06.03-.14.05-.24.05-.13 0-.23-.02-.31-.05a.63.63 0 0 0-.22-.05c-.38 0-.69.1-.91.31-.22.21-.39.48-.5.82-.11.34-.18.7-.22 1.08-.03.38-.05.75-.05 1.1s.02.74.05 1.18c.03.43.1.84.22 1.22.11.38.26.71.46.98.19.27.45.41.77.41s.59-.17.82-.5c.22-.34.4-.73.53-1.18.13-.45.22-.89.26-1.32.05-.43.07-.74.07-.94ZM132.5 19.8c0 .16-.07.29-.22.38-.14.1-.3.18-.48.24s-.36.14-.55.22c-.19.08-.34.17-.43.26l.34 2.26c.19 1.25.36 2.46.5 3.65.14 1.18.22 2.3.22 3.36 0 .83-.09 1.58-.26 2.23-.18.66-.49.98-.94.98-.22 0-.42-.28-.6-.84-.18-.56-.32-1.2-.43-1.92-.11-.72-.19-1.44-.24-2.16-.05-.72-.07-1.24-.07-1.56 0-.22-.02-.58-.05-1.08-.03-.5-.08-1.02-.14-1.58-.06-.56-.13-1.09-.19-1.58-.06-.5-.11-.87-.14-1.13-.54.03-1.28.1-2.21.22-.93.11-2.06.34-3.41.7v.58c0 .7.03 1.48.1 2.33.06.85.14 1.71.22 2.59.08.88.15 1.76.22 2.64.06.88.1 1.72.1 2.52 0 .32-.03.58-.1.79-.06.21-.21.31-.43.31-.38 0-.68-.19-.89-.58-.21-.38-.36-.84-.46-1.37-.1-.53-.17-1.08-.22-1.66-.05-.58-.09-1.06-.12-1.44-.13-.83-.23-1.8-.31-2.9-.08-1.1-.15-2.23-.22-3.38-.13 0-.29-.04-.48-.12-.19-.08-.38-.18-.58-.29-.19-.11-.35-.23-.48-.36a.586.586 0 0 1-.19-.43c0-.38.18-.7.53-.94.35-.24.74-.44 1.15-.6-.03-.29-.05-.6-.05-.94v-5.66c0-.88 0-1.85.02-2.9.02-1.06.02-2.13.02-3.22.03-.26.11-.57.24-.94s.34-.55.62-.55c.22 0 .42.09.58.26.16.18.29.39.38.65a4.418 4.418 0 0 1 .29 1.49V19.8c.29 0 .67-.02 1.15-.05.48-.03.98-.07 1.49-.12.51-.05 1.02-.1 1.51-.17.5-.06.9-.13 1.22-.19l-1.1-10.08a7.33 7.33 0 0 1-.07-.72c-.02-.26-.02-.46-.02-.62 0-.64.09-1.16.26-1.56.18-.4.44-.6.79-.6.45 0 .72.21.82.62.1.42.16 1.02.19 1.82.03.51.06 1.02.1 1.51.03.5.08.98.14 1.46l1.1 8.11c.38 0 .78.02 1.18.07.4.05.6.22.6.5ZM139.6 11.4c0 .06-.11.19-.34.38-.22.19-.49.39-.79.6-.3.21-.62.39-.94.55-.32.16-.58.24-.77.24-.13 0-.3 0-.5-.02-.21-.02-.42-.07-.62-.17-.21-.1-.39-.23-.55-.41-.16-.18-.24-.41-.24-.7 0-.45.16-.87.48-1.27.32-.4.74-.6 1.25-.6.1 0 .31.04.65.12.34.08.68.18 1.03.31s.66.27.94.43c.27.16.41.34.41.53Zm1.58 17.95c0 .22-.17.42-.5.58s-.58.24-.74.24c-.32 0-.61-.21-.86-.62-.26-.42-.48-.9-.67-1.44-.19-.54-.35-1.06-.48-1.56s-.22-.84-.29-1.03c-.1-.32-.22-.7-.38-1.15-.16-.45-.31-.88-.46-1.3-.14-.42-.26-.78-.36-1.1-.1-.32-.14-.5-.14-.53 0-.45.09-.86.26-1.25.18-.38.39-.58.65-.58.29 0 .59.22.91.67.32.45.63 1.02.94 1.7.3.69.58 1.44.84 2.26.26.82.48 1.58.67 2.3.19.72.34 1.34.46 1.87.11.53.17.84.17.94Z"
        class="cls-1" />
    <path
        d="M156.93 11.78c-.42.48-1.01.95-1.78 1.42-.77.46-1.54.89-2.3 1.27-.77.38-1.44.71-2.02.98-.58.27-.86.46-.86.55s.06.38.19.86.28 1.05.46 1.7c.18.66.36 1.34.55 2.04.19.7.35 1.33.48 1.87.06.32.14.74.24 1.25.1.51.18 1.02.26 1.54.08.51.15.97.22 1.37.06.4.1.62.1.65 0 .48-.08.98-.24 1.49-.16.51-.42.77-.77.77-.19 0-.37-.08-.53-.24-.16-.16-.3-.34-.43-.55-.13-.21-.22-.41-.29-.6-.06-.19-.1-.34-.1-.43 0-.06 0-.16.02-.29.02-.13.02-.27.02-.43 0-.61-.1-1.49-.29-2.64-.06-.35-.19-.9-.38-1.63-.19-.74-.38-1.49-.58-2.26-.22-.9-.48-1.87-.77-2.93-.13-.45-.21-.67-.24-.67-.22 0-.6.14-1.13.41-.53.27-1.13.61-1.8 1.01-.67.4-1.38.83-2.11 1.3-.74.46-1.42.9-2.06 1.3-.64.4-1.19.74-1.66 1.01-.46.27-.74.41-.84.41-.42 0-.75-.14-1.01-.43s-.38-.61-.38-.96c0-.19.26-.47.79-.84s1.18-.78 1.97-1.22c.78-.45 1.63-.91 2.54-1.39.91-.48 1.76-.91 2.54-1.3.78-.38 1.7-.83 2.76-1.34-.29-1.47-.53-2.78-.72-3.94-.16-.99-.31-1.9-.46-2.74-.14-.83-.22-1.28-.22-1.34 0-.42.09-.73.26-.94.18-.21.38-.31.6-.31.35 0 .58.24.67.72.35 1.73.68 3.26.98 4.61.3 1.34.6 2.43.89 3.26.29-.06.78-.25 1.49-.55.7-.3 1.44-.63 2.21-.98s1.46-.66 2.09-.94c.62-.27.98-.41 1.08-.41.19 0 .31.06.36.19.05.13.1.24.17.34ZM173.34 24.74c0 .32-.05.65-.14.98-.1.34-.19.62-.29.84-.06.1-.36.42-.89.98s-1.18 1.14-1.97 1.75c-.78.61-1.66 1.16-2.64 1.66-.98.5-1.91.74-2.81.74-.54 0-1.1-.1-1.66-.29-.56-.19-1.08-.5-1.56-.94s-.87-.97-1.18-1.61c-.3-.64-.46-1.42-.46-2.35 0-1.54.26-2.93.77-4.18.51-1.25 1.02-2.24 1.54-2.98.22-.35.52-.71.89-1.08s.73-.7 1.08-1.01c.35-.3.68-.55.98-.74.3-.19.52-.29.65-.29.29 0 .55.08.79.24.24.16.36.32.36.48 0 .26-.07.47-.22.65s-.34.37-.6.58c-.26.21-.56.48-.91.82s-.72.78-1.1 1.32c-.77 1.06-1.34 2.14-1.7 3.24-.37 1.1-.55 2.07-.55 2.9s.31 1.5.94 1.99c.62.5 1.27.74 1.94.74 1.22 0 2.3-.27 3.24-.82.94-.54 1.75-1.15 2.42-1.82.67-.67 1.22-1.28 1.63-1.82.42-.54.72-.82.91-.82.35 0 .53.27.53.82ZM192.54 24.6c.16.16.24.26.24.29 0 .06-.09.26-.26.58-.18.32-.41.66-.7 1.01s-.6.66-.94.94c-.34.27-.66.41-.98.41-.67 0-1.22-.14-1.63-.41-.42-.27-.76-.62-1.03-1.03-.27-.42-.48-.87-.62-1.37-.14-.5-.26-.97-.36-1.42-.06-.22-.13-.34-.19-.34-.1 0-.29.34-.58 1.03s-.6 1.44-.94 2.26-.66 1.57-.96 2.26c-.3.69-.5 1.03-.6 1.03-.58 0-1.06-.25-1.46-.74-.4-.5-.72-1.07-.96-1.73-.24-.66-.42-1.33-.55-2.02-.13-.69-.21-1.22-.24-1.61-.1-.86-.3-2.3-.62-4.32-.32-2.02-.59-4.46-.82-7.34-.06-.61-.14-1.16-.22-1.66-.08-.5-.17-1.05-.26-1.66-.1-.61-.18-1.3-.24-2.06-.06-.77-.1-1.71-.1-2.83 0-.06.02-.27.05-.62.03-.35.08-.74.14-1.15.06-.42.17-.78.31-1.1.14-.32.31-.48.5-.48.22 0 .43.14.62.41.19.27.36.58.5.94.14.35.25.69.31 1.01.06.32.1.54.1.67 0 .48-.03.93-.1 1.34-.06.42-.1.8-.1 1.15 0 .48.04 1.09.12 1.82.08.74.18 1.49.31 2.26.13.77.24 1.51.34 2.23.1.72.18 1.3.24 1.75 0 .03.03.26.1.67.06.42.14.94.22 1.56.08.62.16 1.3.24 2.02.08.72.17 1.42.26 2.11.1.69.18 1.3.26 1.82.08.53.14.9.17 1.13 0 .1.02.23.07.41.05.18.1.38.14.6.05.22.1.43.17.62.06.19.14.34.24.43.19-.38.44-.98.74-1.78s.62-1.62.96-2.45c.34-.83.66-1.56.96-2.18.3-.62.57-.94.79-.94.26 0 .46.05.62.14.16.1.37.18.62.24.32.13.48.3.48.5s.03.46.1.74c.06.38.17.89.31 1.51s.31 1.23.5 1.82c.19.59.42 1.1.67 1.51.26.42.51.62.77.62.13 0 .3-.17.53-.5.22-.34.53-.52.91-.55.06 0 .18.04.34.12.16.08.32.18.48.31ZM210.97 24.6c.16.16.24.26.24.29 0 .06-.09.26-.26.58-.18.32-.41.66-.7 1.01s-.6.66-.94.94c-.34.27-.66.41-.98.41-.67 0-1.22-.14-1.63-.41-.42-.27-.76-.62-1.03-1.03-.27-.42-.48-.87-.62-1.37-.14-.5-.26-.97-.36-1.42-.06-.22-.13-.34-.19-.34-.1 0-.29.34-.58 1.03s-.6 1.44-.94 2.26-.66 1.57-.96 2.26c-.3.69-.5 1.03-.6 1.03-.58 0-1.06-.25-1.46-.74-.4-.5-.72-1.07-.96-1.73-.24-.66-.42-1.33-.55-2.02-.13-.69-.21-1.22-.24-1.61-.1-.86-.3-2.3-.62-4.32-.32-2.02-.59-4.46-.82-7.34-.06-.61-.14-1.16-.22-1.66-.08-.5-.17-1.05-.26-1.66-.1-.61-.18-1.3-.24-2.06-.06-.77-.1-1.71-.1-2.83 0-.06.02-.27.05-.62.03-.35.08-.74.14-1.15.06-.42.17-.78.31-1.1.14-.32.31-.48.5-.48.22 0 .43.14.62.41.19.27.36.58.5.94.14.35.25.69.31 1.01.06.32.1.54.1.67 0 .48-.03.93-.1 1.34-.06.42-.1.8-.1 1.15 0 .48.04 1.09.12 1.82.08.74.18 1.49.31 2.26.13.77.24 1.51.34 2.23.1.72.18 1.3.24 1.75 0 .03.03.26.1.67.06.42.14.94.22 1.56.08.62.16 1.3.24 2.02.08.72.17 1.42.26 2.11.1.69.18 1.3.26 1.82.08.53.14.9.17 1.13 0 .1.02.23.07.41.05.18.1.38.14.6.05.22.1.43.17.62.06.19.14.34.24.43.19-.38.44-.98.74-1.78s.62-1.62.96-2.45c.34-.83.66-1.56.96-2.18.3-.62.57-.94.79-.94.26 0 .46.05.62.14.16.1.37.18.62.24.32.13.48.3.48.5s.03.46.1.74c.06.38.17.89.31 1.51s.31 1.23.5 1.82c.19.59.42 1.1.67 1.51.26.42.51.62.77.62.13 0 .3-.17.53-.5.22-.34.53-.52.91-.55.06 0 .18.04.34.12.16.08.32.18.48.31ZM216.88 11.4c0 .06-.11.19-.34.38-.22.19-.49.39-.79.6-.3.21-.62.39-.94.55-.32.16-.58.24-.77.24-.13 0-.3 0-.5-.02-.21-.02-.42-.07-.62-.17-.21-.1-.39-.23-.55-.41-.16-.18-.24-.41-.24-.7 0-.45.16-.87.48-1.27.32-.4.74-.6 1.25-.6.1 0 .31.04.65.12.34.08.68.18 1.03.31s.66.27.94.43c.27.16.41.34.41.53Zm1.58 17.95c0 .22-.17.42-.5.58s-.58.24-.74.24c-.32 0-.61-.21-.86-.62-.26-.42-.48-.9-.67-1.44-.19-.54-.35-1.06-.48-1.56s-.22-.84-.29-1.03c-.1-.32-.22-.7-.38-1.15-.16-.45-.31-.88-.46-1.3-.14-.42-.26-.78-.36-1.1-.1-.32-.14-.5-.14-.53 0-.45.09-.86.26-1.25.18-.38.39-.58.65-.58.29 0 .59.22.91.67.32.45.63 1.02.94 1.7.3.69.58 1.44.84 2.26.26.82.48 1.58.67 2.3.19.72.34 1.34.46 1.87.11.53.17.84.17.94ZM238.53 28.34c0 .26-.03.44-.1.55-.06.11-.22.2-.48.26-.29.1-.65.2-1.08.31-.43.11-.9.22-1.42.34-.51.11-1.03.21-1.56.29-.53.08-1.02.12-1.46.12-.54 0-1.14-.03-1.8-.1-.66-.06-1.29-.17-1.9-.31-.61-.14-1.16-.3-1.66-.48s-.86-.39-1.08-.65c.16.67.3 1.34.43 2.02.13.67.22 1.34.29 2.02 0 .16-.04.3-.12.41-.08.11-.3.17-.65.17-.16 0-.31-.04-.46-.12-.14-.08-.26-.25-.36-.5a19.818 19.818 0 0 1-1.22-3.5c-.14-.58-.3-1.18-.46-1.82-.16-.64-.35-1.34-.58-2.11-.35-1.25-.72-2.58-1.1-4.01-.38-1.42-.74-2.78-1.06-4.08-.32-1.3-.58-2.45-.77-3.46-.19-1.01-.29-1.72-.29-2.14 0-.19 0-.45.02-.77s.06-.63.14-.94c.08-.3.19-.56.34-.77.14-.21.34-.31.6-.31.16 0 .33.25.5.74.18.5.34 1.04.48 1.63.14.59.27 1.15.38 1.68.11.53.17.81.17.84.13.7.28 1.48.46 2.33.18.85.36 1.7.55 2.57.19.86.4 1.69.62 2.47.22.78.46 1.45.72 1.99.03-.32.14-.78.34-1.39.19-.61.45-1.26.77-1.97.32-.7.68-1.43 1.08-2.18.4-.75.82-1.43 1.25-2.04.43-.61.86-1.1 1.3-1.49.43-.38.84-.58 1.22-.58.61 0 1.03.08 1.27.24.24.16.36.35.36.58 0 .19-.27.57-.82 1.13-.54.56-1.15 1.3-1.82 2.21-.67.91-1.28 1.98-1.82 3.22-.54 1.23-.82 2.6-.82 4.1 0 .54.15 1.02.46 1.42.3.4.7.73 1.2.98.5.26 1.06.46 1.68.6s1.24.22 1.85.22c.54 0 1.14-.02 1.78-.05.64-.03 1.24-.07 1.8-.12.56-.05 1.04-.09 1.44-.12.4-.03.65-.05.74-.05.16 0 .3.05.43.14.13.1.19.26.19.48ZM253.93 28.44c.03.06.05.16.05.29 0 .19-.14.48-.43.86-.1.13-.3.34-.62.62-.32.29-.75.58-1.3.86-.54.29-1.21.54-1.99.77-.78.22-1.7.34-2.76.34-.74 0-1.46-.17-2.16-.5-.7-.34-1.33-.83-1.87-1.49s-.99-1.47-1.34-2.45c-.35-.98-.53-2.12-.53-3.43s.16-2.42.48-3.5c.32-1.09.73-2.05 1.22-2.88s1.05-1.49 1.66-1.97c.61-.48 1.2-.72 1.78-.72.51 0 1.03.1 1.56.31s1.01.47 1.44.79c.43.32.78.68 1.03 1.08.26.4.38.81.38 1.22 0 .48-.22.98-.65 1.49-.43.51-.95.98-1.56 1.42-.61.43-1.22.78-1.82 1.06-.61.27-1.09.41-1.44.41-.19 0-.36-.09-.5-.26a1.02 1.02 0 0 1-.22-.65c0-.45.2-.8.6-1.06.4-.26.84-.49 1.32-.7.48-.21.92-.46 1.32-.74.4-.29.6-.69.6-1.2 0-.06-.08-.22-.24-.48-.16-.26-.59-.38-1.3-.38-.32 0-.69.18-1.1.55-.42.37-.82.86-1.2 1.49-.38.62-.7 1.36-.96 2.21-.26.85-.38 1.77-.38 2.76 0 .83.15 1.58.46 2.26.3.67.7 1.24 1.18 1.7s1.04.82 1.68 1.08c.64.26 1.3.38 1.97.38.48 0 1-.1 1.56-.31s1.09-.43 1.58-.67c.5-.24.93-.46 1.3-.67.37-.21.6-.31.7-.31s.2.05.31.14c.11.1.18.19.22.29Z"
        class="cls-1" />
</svg>