<?xml version="1.0" encoding="utf-8"?>
<!-- Generator: Adobe Illustrator 27.1.0, SVG Export Plug-In . SVG Version: 6.00 Build 0)  -->
<svg version="1.1" id="Layer_1" xmlns="http://www.w3.org/2000/svg" xmlns:xlink="http://www.w3.org/1999/xlink" x="0px" y="0px"
	 viewBox="0 0 32 32" style="enable-background:new 0 0 32 32;" xml:space="preserve">
<style type="text/css">
	.st0{fill:#AAAAAA;}
</style>
<path class="st0" d="M11.6,5.5C10.5,5.6,9.7,5.8,9.1,6C8.4,6.3,7.8,6.7,7.2,7.3S6.3,8.4,6,9.1c-0.3,0.7-0.4,1.4-0.5,2.6
	S5.5,13.2,5.5,16c0,2.9,0,3.2,0.1,4.3c0.1,1.1,0.2,1.9,0.5,2.6c0.3,0.7,0.6,1.3,1.2,1.9s1.2,0.9,1.9,1.2c0.7,0.3,1.4,0.4,2.6,0.5
	s1.5,0.1,4.3,0.1c2.9,0,3.2,0,4.3-0.1c1.1-0.1,1.9-0.2,2.6-0.5c0.7-0.3,1.3-0.6,1.9-1.2c0.6-0.6,0.9-1.2,1.2-1.9
	c0.3-0.7,0.4-1.4,0.5-2.6c0-1.1,0.1-1.5,0.1-4.3c0-2.9,0-3.2-0.1-4.3S26.2,9.7,26,9.1c-0.3-0.7-0.6-1.3-1.2-1.9
	c-0.6-0.6-1.2-0.9-1.9-1.2c-0.7-0.3-1.4-0.4-2.6-0.5c-1.1,0-1.5-0.1-4.3-0.1C13.1,5.5,12.8,5.5,11.6,5.5 M11.8,24.6
	c-1,0-1.6-0.2-2-0.4C9.3,24,9,23.8,8.6,23.4c-0.4-0.4-0.6-0.7-0.8-1.2c-0.1-0.4-0.3-0.9-0.4-2c-0.1-1.1-0.1-1.4-0.1-4.3
	c0-2.8,0-3.1,0.1-4.3c0-1,0.2-1.6,0.4-2C8,9.3,8.2,9,8.6,8.6C8.9,8.2,9.3,8,9.8,7.8c0.4-0.1,0.9-0.3,2-0.4c1.1-0.1,1.4-0.1,4.3-0.1
	s3.1,0,4.3,0.1c1,0,1.6,0.2,2,0.4C22.7,8,23,8.2,23.4,8.6c0.4,0.4,0.6,0.7,0.8,1.2c0.1,0.4,0.3,0.9,0.4,2c0.1,1.1,0.1,1.4,0.1,4.3
	c0,2.8,0,3.1-0.1,4.3c0,1-0.2,1.6-0.4,2c-0.2,0.5-0.4,0.8-0.8,1.2s-0.7,0.6-1.2,0.8c-0.4,0.1-0.9,0.3-2,0.4
	c-1.1,0.1-1.4,0.1-4.3,0.1S12.9,24.6,11.8,24.6 M20.3,10.4c0,0.7,0.6,1.3,1.3,1.3s1.3-0.6,1.3-1.3s-0.6-1.3-1.3-1.3c0,0,0,0,0,0
	C20.9,9.1,20.3,9.7,20.3,10.4 M10.6,16c0,3,2.4,5.4,5.4,5.4c3,0,5.4-2.4,5.4-5.4S19,10.6,16,10.6S10.6,13,10.6,16 M12.5,16
	c0-1.9,1.6-3.5,3.5-3.5c1.9,0,3.5,1.6,3.5,3.5c0,1.9-1.6,3.5-3.5,3.5C14.1,19.5,12.5,17.9,12.5,16C12.5,16,12.5,16,12.5,16"/>
</svg>
