<svg xmlns="http://www.w3.org/2000/svg" viewBox="0 0 32 32" fill="#aaa" xmlns:v="https://vecta.io/nano"><path d="M11.6 5.5c-1.1.1-1.9.3-2.5.5-.7.3-1.3.7-1.9 1.3S6.3 8.4 6 9.1s-.4 1.4-.5 2.6 0 1.5 0 4.3l.1 4.3c.1 1.1.2 1.9.5 2.6s.6 1.3 1.2 1.9 1.2.9 1.9 1.2 1.4.4 2.6.5 1.5.1 4.3.1l4.3-.1c1.1-.1 1.9-.2 2.6-.5s1.3-.6 1.9-1.2.9-1.2 1.2-1.9.4-1.4.5-2.6l.1-4.3-.1-4.3c-.1-1.1-.4-2-.6-2.6-.3-.7-.6-1.3-1.2-1.9s-1.2-.9-1.9-1.2-1.4-.4-2.6-.5c-1.1 0-1.5-.1-4.3-.1l-4.4.1m.2 19.1c-1 0-1.6-.2-2-.4-.5-.2-.8-.4-1.2-.8s-.6-.7-.8-1.2c-.1-.4-.3-.9-.4-2s-.1-1.4-.1-4.3l.1-4.3c0-1 .2-1.6.4-2 .2-.3.4-.6.8-1 .3-.4.7-.6 1.2-.8.4-.1.9-.3 2-.4s1.4-.1 4.3-.1l4.3.1c1 0 1.6.2 2 .4a5.77 5.77 0 0 1 1 .8c.4.4.6.7.8 1.2.1.4.3.9.4 2s.1 1.4.1 4.3l-.1 4.3c0 1-.2 1.6-.4 2-.2.5-.4.8-.8 1.2s-.7.6-1.2.8c-.4.1-.9.3-2 .4s-1.4.1-4.3.1-3-.3-4.1-.3m-.3-10h0c.6 0 1.1.5 1.1 1v4.5c0 .6-.5 1-1.1 1h0c-.6 0-1.1-.5-1.1-1v-4.5c.1-.6.5-1 1.1-1z"/><path d="M11.6 11.2c-.6 0-1.1.5-1.1 1 0 .6.5 1 1.1 1s1.1-.5 1.1-1c-.1-.5-.6-1-1.1-1zm6 4.8a1.64 1.64 0 0 1 1.2.2c.4.4.6 1 .5 1.6v2.3c0 .6.5 1 1.1 1h0c.6 0 1.1-.5 1.1-1v-3c0-.6-.2-1.3-.5-1.8h0c-.5-.6-1.2-.9-2-.9-.9-.1-1.7.3-2.2 1l-.3.4v-.2c0-.6-.5-1-1.1-1h0c-.6 0-1.1.5-1.1 1v4.5c0 .6.5 1 1.1 1h0c.6 0 1.1-.5 1.1-1v-3c.4-1 1.1-1.1 1.1-1.1z"/></svg>