<svg xmlns="http://www.w3.org/2000/svg" viewBox="0 0 512 512" fill="#aaa">
    <path
        d="M170.5 409.902h-18.889a11.53 11.53 0 0 1-11.513-11.513V332a17.095 17.095 0 0 0-29.186-12.088L70.583 360.24a17.096 17.096 0 0 0 24.177 24.177l11.142-11.133v25.104a45.758 45.758 0 0 0 45.709 45.709H170.5a17.098 17.098 0 0 0 0-34.196zm171-307.804h18.926a11.49 11.49 0 0 1 11.476 11.476V180a17.096 17.096 0 0 0 29.187 12.088l40.329-40.328a17.096 17.096 0 0 0-24.177-24.177l-11.142 11.133v-25.142a45.719 45.719 0 0 0-45.672-45.672H341.5a17.098 17.098 0 1 0 0 34.196zm.057 255.867a219.312 219.312 0 0 0 15.814-18.367h-31.646a223.073 223.073 0 0 0 15.832 18.367z" />
    <path
        d="M455.5 219.902H301.598V47A17.097 17.097 0 0 0 284.5 29.902h-228A17.097 17.097 0 0 0 39.402 47v228A17.097 17.097 0 0 0 56.5 292.098h153.902V465a17.097 17.097 0 0 0 17.098 17.098h228A17.097 17.097 0 0 0 472.598 465V237a17.097 17.097 0 0 0-17.098-17.098zm-222.202-19.046l-47.5-95c-5.808-11.597-24.789-11.597-30.597 0l-47.5 95a17.102 17.102 0 0 0 30.597 15.289l4.772-9.546h54.86l4.772 9.546a16.939 16.939 0 0 0 12.498 9.076 16.986 16.986 0 0 0-4.798 11.78v20.902H73.598V64.098h193.804v155.804h-36.769a17.024 17.024 0 0 0 2.665-19.046zm-52.465-28.454h-20.668l10.334-20.67zM408 339.598h-9.092a249.019 249.019 0 0 1-31.592 40.971 167.672 167.672 0 0 0 37.483 21.039 17.095 17.095 0 1 1-12.599 31.784 205.048 205.048 0 0 1-50.701-29.344 205.048 205.048 0 0 1-50.701 29.344 16.914 16.914 0 0 1-6.29 1.215 17.103 17.103 0 0 1-6.309-33 168.548 168.548 0 0 0 37.516-21.004 249.088 249.088 0 0 1-31.625-41.006H275a17.098 17.098 0 0 1 0-34.196h49.402V284.5a17.098 17.098 0 0 1 34.196 0v20.902H408a17.098 17.098 0 0 1 0 34.196z" />
</svg>