<?xml version="1.0" standalone="no"?>
<!DOCTYPE svg PUBLIC "-//W3C//DTD SVG 20010904//EN"
 "http://www.w3.org/TR/2001/REC-SVG-20010904/DTD/svg10.dtd">
<svg version="1.0" xmlns="http://www.w3.org/2000/svg"
 width="700.000000pt" height="700.000000pt" viewBox="0 0 700.000000 700.000000"
 preserveAspectRatio="xMidYMid meet">
<metadata>
Created by potrace 1.14, written by Peter Selinger 2001-2017
</metadata>
<g transform="translate(0.000000,700.000000) scale(0.100000,-0.100000)"
fill="#000000" stroke="none">
<path d="M3872 6338 c-170 -19 -273 -140 -307 -358 -3 -19 -7 -46 -10 -60 -5
-24 -11 -115 -20 -262 -14 -258 -17 -292 -29 -408 -11 -98 -54 -284 -86 -369
-144 -387 -492 -712 -950 -888 -151 -58 -105 -55 -910 -57 l-745 -1 -42 -23
c-23 -12 -53 -36 -66 -54 -55 -75 -53 -11 -51 -1353 1 -1366 -3 -1276 63
-1344 66 -68 33 -65 796 -67 l690 -3 610 -206 c336 -113 618 -207 628 -210 9
-2 23 -7 30 -12 6 -4 392 -8 857 -8 705 -1 853 2 895 14 292 83 330 468 61
608 -57 29 -96 33 -316 36 l-155 2 -2 107 -1 108 401 1 c221 0 413 2 427 5 84
15 188 93 230 174 84 161 11 369 -159 449 l-56 26 -295 2 c-162 1 -303 2 -313
3 -16 0 -17 10 -15 107 l3 108 400 1 c220 0 416 4 435 9 128 28 245 159 254
285 11 149 -77 290 -213 341 -52 19 -77 21 -356 22 l-300 2 -3 108 c-2 97 -1
107 15 107 10 1 194 1 409 1 428 1 446 3 533 64 74 50 146 195 135 270 -1 11
-5 37 -9 58 -14 96 -89 190 -185 235 l-55 26 -823 2 c-452 0 -824 3 -827 5 -2
3 0 22 5 44 11 46 56 290 65 350 3 22 8 58 11 80 3 22 8 51 10 65 2 14 6 52 9
85 3 33 8 74 10 90 27 178 26 768 -1 880 -3 11 -6 36 -8 55 -7 61 -44 215 -72
291 -118 331 -327 490 -602 457z"/>
</g>
</svg>
